<?xml version="1.0" encoding="UTF-8"?>
<!DOCTYPE svg PUBLIC "-//W3C//DTD SVG 1.1//EN" "http://www.w3.org/Graphics/SVG/1.1/DTD/svg11.dtd">
<svg version="1.1" xmlns="http://www.w3.org/2000/svg" xmlns:xlink="http://www.w3.org/1999/xlink" x="0" y="0" width="24" height="24" viewBox="0, 0, 24, 24">
  <g id="Layer_1">
    <path d="M24,8.644 L24,19.302 Q24,20.188 23.371,20.819 Q22.741,21.45 21.857,21.45 L2.143,21.45 Q1.259,21.45 0.629,20.819 Q-0,20.188 -0,19.302 L-0,8.644 Q0.589,9.302 1.353,9.812 Q6.201,13.114 8.009,14.443 Q8.772,15.007 9.248,15.322 Q9.723,15.638 10.513,15.967 Q11.304,16.295 11.987,16.295 L12.013,16.295 Q12.696,16.295 13.487,15.967 Q14.277,15.638 14.752,15.322 Q15.228,15.007 15.991,14.443 Q18.268,12.792 22.661,9.812 Q23.424,9.288 24,8.644 z M24,4.698 Q24,5.758 23.344,6.725 Q22.688,7.691 21.71,8.376 Q16.674,11.879 15.442,12.738 Q15.308,12.832 14.873,13.148 Q14.438,13.463 14.15,13.658 Q13.862,13.852 13.453,14.094 Q13.045,14.336 12.683,14.456 Q12.321,14.577 12.013,14.577 L11.987,14.577 Q11.679,14.577 11.317,14.456 Q10.955,14.336 10.547,14.094 Q10.138,13.852 9.85,13.658 Q9.562,13.463 9.127,13.148 Q8.692,12.832 8.558,12.738 Q7.339,11.879 5.049,10.289 Q2.759,8.698 2.304,8.376 Q1.473,7.812 0.737,6.825 Q-0,5.839 -0,4.993 Q-0,3.946 0.556,3.248 Q1.112,2.55 2.143,2.55 L21.857,2.55 Q22.728,2.55 23.364,3.181 Q24,3.812 24,4.698 z" fill="#FFFFFF"/>
  </g>
</svg>
