<?xml version="1.0" encoding="UTF-8"?>
<!DOCTYPE svg PUBLIC "-//W3C//DTD SVG 1.1//EN" "http://www.w3.org/Graphics/SVG/1.1/DTD/svg11.dtd">
<svg version="1.1" xmlns="http://www.w3.org/2000/svg" xmlns:xlink="http://www.w3.org/1999/xlink" x="0" y="0" width="24" height="24" viewBox="0, 0, 24, 24">
  <g id="Layer_1">
    <path d="M14.573,12.154 Q14.573,14.041 13.788,15.516 Q13.002,16.99 11.549,17.82 Q10.095,18.65 8.218,18.65 Q6.872,18.65 5.645,18.124 Q4.417,17.598 3.532,16.709 Q2.647,15.82 2.123,14.585 Q1.6,13.352 1.6,12 Q1.6,10.648 2.123,9.415 Q2.647,8.18 3.532,7.291 Q4.417,6.402 5.645,5.876 Q6.872,5.35 8.218,5.35 Q10.799,5.35 12.65,7.092 L10.853,8.825 Q9.797,7.8 8.218,7.8 Q7.107,7.8 6.164,8.362 Q5.22,8.925 4.669,9.891 Q4.119,10.857 4.119,12 Q4.119,13.143 4.669,14.109 Q5.22,15.075 6.164,15.638 Q7.107,16.2 8.218,16.2 Q8.966,16.2 9.594,15.992 Q10.221,15.783 10.628,15.47 Q11.034,15.157 11.336,14.758 Q11.639,14.359 11.778,14.005 Q11.919,13.651 11.973,13.333 L8.218,13.333 L8.218,11.047 L14.464,11.047 Q14.573,11.619 14.573,12.154 z M22.4,11.047 L22.4,12.953 L20.513,12.953 L20.513,14.849 L18.618,14.849 L18.618,12.953 L16.731,12.953 L16.731,11.047 L18.618,11.047 L18.618,9.151 L20.513,9.151 L20.513,11.047 L22.4,11.047 z" fill="#FFFFFF"/>
  </g>
</svg>
