<?xml version="1.0" encoding="UTF-8"?>
<!DOCTYPE svg PUBLIC "-//W3C//DTD SVG 1.1//EN" "http://www.w3.org/Graphics/SVG/1.1/DTD/svg11.dtd">
<svg version="1.1" xmlns="http://www.w3.org/2000/svg" xmlns:xlink="http://www.w3.org/1999/xlink" x="0" y="0" width="24" height="24" viewBox="0, 0, 24, 24">
  <g id="Layer_1">
    <path d="M22.3,12.252 Q22.3,15.619 20.335,18.308 Q18.37,20.997 15.259,22.03 Q14.897,22.097 14.729,21.936 Q14.562,21.775 14.562,21.534 L14.562,18.704 Q14.562,17.403 13.864,16.799 Q14.629,16.718 15.239,16.557 Q15.849,16.397 16.5,16.034 Q17.15,15.672 17.586,15.142 Q18.022,14.613 18.297,13.734 Q18.572,12.855 18.572,11.715 Q18.572,10.092 17.512,8.952 Q18.008,7.731 17.405,6.216 Q17.029,6.095 16.318,6.363 Q15.608,6.631 15.085,6.953 L14.575,7.275 Q13.328,6.926 12,6.926 Q10.672,6.926 9.425,7.275 Q9.21,7.128 8.855,6.913 Q8.5,6.698 7.735,6.397 Q6.971,6.095 6.582,6.216 Q5.992,7.731 6.488,8.952 Q5.428,10.092 5.428,11.715 Q5.428,12.855 5.703,13.727 Q5.978,14.599 6.407,15.136 Q6.837,15.672 7.487,16.034 Q8.137,16.397 8.748,16.557 Q9.358,16.718 10.122,16.799 Q9.586,17.282 9.465,18.181 Q9.184,18.315 8.862,18.382 Q8.54,18.449 8.097,18.449 Q7.655,18.449 7.219,18.16 Q6.783,17.872 6.474,17.322 Q6.22,16.893 5.824,16.625 Q5.428,16.356 5.16,16.303 L4.892,16.262 Q4.61,16.262 4.503,16.323 Q4.396,16.383 4.436,16.477 Q4.476,16.571 4.557,16.665 Q4.637,16.759 4.731,16.826 L4.825,16.893 Q5.12,17.027 5.408,17.403 Q5.697,17.778 5.831,18.087 L5.965,18.395 Q6.139,18.905 6.555,19.22 Q6.971,19.535 7.454,19.623 Q7.936,19.71 8.386,19.716 Q8.835,19.723 9.13,19.669 L9.438,19.616 Q9.438,20.126 9.445,20.81 Q9.452,21.494 9.452,21.534 Q9.452,21.775 9.277,21.936 Q9.103,22.097 8.741,22.03 Q5.63,20.997 3.665,18.308 Q1.7,15.619 1.7,12.252 Q1.7,9.448 3.081,7.081 Q4.463,4.713 6.83,3.332 Q9.197,1.95 12,1.95 Q14.803,1.95 17.17,3.332 Q19.537,4.713 20.919,7.081 Q22.3,9.448 22.3,12.252 z" fill="#FFFFFF"/>
  </g>
</svg>
