<?xml version="1.0" encoding="UTF-8"?>
<!DOCTYPE svg PUBLIC "-//W3C//DTD SVG 1.1//EN" "http://www.w3.org/Graphics/SVG/1.1/DTD/svg11.dtd">
<svg version="1.1" xmlns="http://www.w3.org/2000/svg" xmlns:xlink="http://www.w3.org/1999/xlink" x="0" y="0" width="24" height="24" viewBox="0, 0, 24, 24">
  <g id="Layer_1">
    <path d="M15.417,12 Q15.417,10.585 14.416,9.584 Q13.415,8.583 12,8.583 Q10.585,8.583 9.584,9.584 Q8.583,10.585 8.583,12 Q8.583,13.415 9.584,14.416 Q10.585,15.417 12,15.417 Q13.415,15.417 14.416,14.416 Q15.417,13.415 15.417,12 z M17.258,12 Q17.258,14.189 15.724,15.724 Q14.189,17.258 12,17.258 Q9.811,17.258 8.276,15.724 Q6.742,14.189 6.742,12 Q6.742,9.811 8.276,8.276 Q9.811,6.742 12,6.742 Q14.189,6.742 15.724,8.276 Q17.258,9.811 17.258,12 z M18.7,6.528 Q18.7,7.035 18.34,7.396 Q17.979,7.756 17.472,7.756 Q16.965,7.756 16.604,7.396 Q16.244,7.035 16.244,6.528 Q16.244,6.021 16.604,5.66 Q16.965,5.3 17.472,5.3 Q17.979,5.3 18.34,5.66 Q18.7,6.021 18.7,6.528 z M12,3.592 Q11.907,3.592 10.979,3.585 Q10.051,3.578 9.571,3.585 Q9.09,3.592 8.283,3.625 Q7.476,3.659 6.908,3.759 Q6.341,3.859 5.954,4.006 Q5.287,4.272 4.78,4.78 Q4.272,5.287 4.006,5.954 Q3.859,6.341 3.759,6.908 Q3.659,7.476 3.625,8.283 Q3.592,9.09 3.585,9.571 Q3.578,10.051 3.585,10.979 Q3.592,11.907 3.592,12 Q3.592,12.093 3.585,13.021 Q3.578,13.949 3.585,14.429 Q3.592,14.91 3.625,15.717 Q3.659,16.524 3.759,17.092 Q3.859,17.659 4.006,18.046 Q4.272,18.713 4.78,19.22 Q5.287,19.728 5.954,19.994 Q6.341,20.141 6.908,20.241 Q7.476,20.341 8.283,20.375 Q9.09,20.408 9.571,20.415 Q10.051,20.422 10.979,20.415 Q11.907,20.408 12,20.408 Q12.093,20.408 13.021,20.415 Q13.949,20.422 14.429,20.415 Q14.91,20.408 15.717,20.375 Q16.524,20.341 17.092,20.241 Q17.659,20.141 18.046,19.994 Q18.713,19.728 19.22,19.22 Q19.728,18.713 19.994,18.046 Q20.141,17.659 20.241,17.092 Q20.341,16.524 20.375,15.717 Q20.408,14.91 20.415,14.429 Q20.422,13.949 20.415,13.021 Q20.408,12.093 20.408,12 Q20.408,11.907 20.415,10.979 Q20.422,10.051 20.415,9.571 Q20.408,9.09 20.375,8.283 Q20.341,7.476 20.241,6.908 Q20.141,6.341 19.994,5.954 Q19.728,5.287 19.22,4.78 Q18.713,4.272 18.046,4.006 Q17.659,3.859 17.092,3.759 Q16.524,3.659 15.717,3.625 Q14.91,3.592 14.429,3.585 Q13.949,3.578 13.021,3.585 Q12.093,3.592 12,3.592 z M22.25,12 Q22.25,15.056 22.183,16.231 Q22.05,19.007 20.528,20.528 Q19.007,22.05 16.231,22.183 Q15.056,22.25 12,22.25 Q8.944,22.25 7.769,22.183 Q4.993,22.05 3.472,20.528 Q1.95,19.007 1.817,16.231 Q1.75,15.056 1.75,12 Q1.75,8.944 1.817,7.769 Q1.95,4.993 3.472,3.472 Q4.993,1.95 7.769,1.817 Q8.944,1.75 12,1.75 Q15.056,1.75 16.231,1.817 Q19.007,1.95 20.528,3.472 Q22.05,4.993 22.183,7.769 Q22.25,8.944 22.25,12 z" fill="#FFFFFF"/>
  </g>
</svg>
