<?xml version="1.0" encoding="UTF-8"?>
<!DOCTYPE svg PUBLIC "-//W3C//DTD SVG 1.1//EN" "http://www.w3.org/Graphics/SVG/1.1/DTD/svg11.dtd">
<svg version="1.1" xmlns="http://www.w3.org/2000/svg" xmlns:xlink="http://www.w3.org/1999/xlink" x="0" y="0" width="24" height="24" viewBox="0, 0, 24, 24">
  <g id="Layer_1">
    <path d="M6.381,8.551 L6.381,21.85 L1.955,21.85 L1.955,8.551 L6.381,8.551 z M6.662,4.445 Q6.676,5.424 5.985,6.082 Q5.294,6.74 4.168,6.74 L4.141,6.74 Q3.041,6.74 2.371,6.082 Q1.7,5.424 1.7,4.445 Q1.7,3.452 2.391,2.801 Q3.081,2.15 4.195,2.15 Q5.308,2.15 5.978,2.801 Q6.649,3.452 6.662,4.445 z M22.3,14.228 L22.3,21.85 L17.888,21.85 L17.888,14.738 Q17.888,13.329 17.344,12.53 Q16.801,11.732 15.648,11.732 Q14.803,11.732 14.233,12.195 Q13.663,12.658 13.381,13.342 Q13.234,13.745 13.234,14.429 L13.234,21.85 L8.821,21.85 Q8.848,16.496 8.848,13.168 Q8.848,9.839 8.835,9.195 L8.821,8.551 L13.234,8.551 L13.234,10.484 L13.207,10.484 Q13.475,10.054 13.757,9.732 Q14.039,9.41 14.515,9.034 Q14.991,8.659 15.681,8.451 Q16.372,8.243 17.217,8.243 Q19.51,8.243 20.905,9.766 Q22.3,11.289 22.3,14.228 z" fill="#FFFFFF"/>
  </g>
</svg>
