<?xml version="1.0" encoding="UTF-8"?>
<!DOCTYPE svg PUBLIC "-//W3C//DTD SVG 1.1//EN" "http://www.w3.org/Graphics/SVG/1.1/DTD/svg11.dtd">
<svg version="1.1" xmlns="http://www.w3.org/2000/svg" xmlns:xlink="http://www.w3.org/1999/xlink" x="0" y="0" width="24" height="24" viewBox="0, 0, 24, 24">
  <g id="Layer_1">
    <path d="M22.527,5.481 Q21.632,6.79 20.363,7.712 Q20.376,7.899 20.376,8.273 Q20.376,10.009 19.869,11.739 Q19.361,13.47 18.326,15.059 Q17.29,16.649 15.861,17.871 Q14.431,19.094 12.414,19.822 Q10.397,20.55 8.099,20.55 Q4.479,20.55 1.473,18.613 Q1.94,18.666 2.515,18.666 Q5.521,18.666 7.872,16.823 Q6.469,16.796 5.36,15.961 Q4.252,15.126 3.837,13.83 Q4.278,13.897 4.652,13.897 Q5.227,13.897 5.788,13.75 Q4.292,13.443 3.31,12.261 Q2.328,11.078 2.328,9.515 L2.328,9.462 Q3.236,9.969 4.278,10.009 Q3.397,9.422 2.876,8.473 Q2.355,7.525 2.355,6.416 Q2.355,5.24 2.942,4.238 Q4.559,6.229 6.877,7.424 Q9.195,8.62 11.84,8.754 Q11.733,8.246 11.733,7.765 Q11.733,5.975 12.995,4.712 Q14.258,3.45 16.048,3.45 Q17.918,3.45 19.201,4.813 Q20.657,4.532 21.939,3.771 Q21.445,5.307 20.042,6.149 Q21.285,6.015 22.527,5.481 z" fill="#FFFFFF"/>
  </g>
</svg>
