<?xml version="1.0" encoding="UTF-8"?>
<!DOCTYPE svg PUBLIC "-//W3C//DTD SVG 1.1//EN" "http://www.w3.org/Graphics/SVG/1.1/DTD/svg11.dtd">
<svg version="1.1" xmlns="http://www.w3.org/2000/svg" xmlns:xlink="http://www.w3.org/1999/xlink" x="0" y="0" width="24" height="24" viewBox="0, 0, 24, 24">
  <g id="Layer_1">
    <path d="M17.143,12 Q17.143,11.506 16.741,11.279 L9.884,7.004 Q9.469,6.736 9.013,6.977 Q8.571,7.217 8.571,7.725 L8.571,16.275 Q8.571,16.783 9.013,17.023 Q9.228,17.13 9.429,17.13 Q9.696,17.13 9.884,16.996 L16.741,12.721 Q17.143,12.494 17.143,12 z M24,12 Q24,13.283 23.987,14.004 Q23.973,14.725 23.873,15.827 Q23.772,16.93 23.571,17.798 Q23.357,18.773 22.647,19.441 Q21.938,20.109 20.987,20.216 Q18.013,20.55 12,20.55 Q5.987,20.55 3.013,20.216 Q2.062,20.109 1.346,19.441 Q0.629,18.773 0.415,17.798 Q0.228,16.93 0.127,15.827 Q0.027,14.725 0.013,14.004 Q-0,13.283 -0,12 Q-0,10.717 0.013,9.996 Q0.027,9.275 0.127,8.173 Q0.228,7.07 0.429,6.202 Q0.643,5.227 1.353,4.559 Q2.062,3.891 3.013,3.784 Q5.987,3.45 12,3.45 Q18.013,3.45 20.987,3.784 Q21.938,3.891 22.654,4.559 Q23.371,5.227 23.585,6.202 Q23.772,7.07 23.873,8.173 Q23.973,9.275 23.987,9.996 Q24,10.717 24,12 z" fill="#FFFFFF"/>
  </g>
</svg>
